<svg width="24" height="24" viewBox="0 0 24 24" fill="none" xmlns="http://www.w3.org/2000/svg">
<path d="M23.2699 0.684495C22.9101 0.684495 22.4902 0.684495 22.1303 0.684495C19.6711 0.804663 17.3319 1.34542 15.1126 2.42693C12.4135 3.68869 10.1342 5.49121 8.33483 7.89457C7.07525 9.51684 6.17554 11.3194 5.51576 13.242C5.45578 13.3622 5.51576 13.4223 5.57574 13.4824C6.11556 14.0231 6.65538 14.5639 7.19521 15.1047C7.25519 15.1647 7.31517 15.2849 7.31517 15.4051C7.31517 15.5252 7.25519 15.6454 7.13523 15.7055C7.01526 15.7656 6.83532 15.7656 6.77534 15.6454C6.47544 15.345 6.23552 15.1047 5.93562 14.8042C5.57574 14.4437 5.27583 14.0832 4.91595 13.7828C4.79599 13.6626 4.73601 13.4824 4.79599 13.3021C5.57574 10.9589 6.71536 8.79583 8.33483 6.87315C9.9543 4.89037 11.9337 3.32819 14.1529 2.18659C16.1923 1.10508 18.4115 0.444159 20.6908 0.143739C21.6505 0.0235712 22.6102 -0.0365127 23.5698 0.0235712C23.8697 0.0235712 23.9297 0.143739 23.9897 0.444159C24.1097 4.34962 23.15 7.95466 21.0507 11.3194C18.9514 14.624 16.0723 17.0874 12.4735 18.6496C11.9337 18.8899 11.3339 19.0702 10.734 19.3105C10.5541 19.3706 10.4341 19.3706 10.3142 19.1904C9.71438 18.5895 9.0546 17.9286 8.45479 17.3278C8.33483 17.2076 8.27485 17.0273 8.39481 16.8471C8.51477 16.6668 8.7547 16.6668 8.93464 16.8471C9.47446 17.3878 10.0143 17.9286 10.5541 18.4694C10.6741 18.5895 10.734 18.5895 10.854 18.5294C13.4931 17.6282 15.8324 16.1862 17.8117 14.2635C20.151 11.9803 21.7105 9.2765 22.6102 6.21222C23.09 4.52987 23.3299 2.78743 23.3299 0.984915C23.3299 0.864747 23.2699 0.804663 23.2699 0.684495Z" fill="url(#paint0_linear_3907_6849)"/>
<path d="M19.9719 7.71395C19.9719 9.75681 18.3524 11.3791 16.3131 11.3791C14.2738 11.3791 12.6543 9.75681 12.6543 7.71395C12.6543 5.73118 14.2738 4.04883 16.2531 4.04883C18.3524 4.04883 19.9719 5.6711 19.9719 7.71395ZM19.2521 7.77403C19.2521 6.09168 17.9326 4.76984 16.2531 4.76984C14.5737 4.76984 13.2541 6.09168 13.2541 7.77403C13.2541 9.45639 14.5737 10.7782 16.2531 10.7782C17.9326 10.7182 19.2521 9.3963 19.2521 7.77403Z" fill="url(#paint1_linear_3907_6849)"/>
<path d="M10.7947 23.0964C11.2146 22.8561 11.6345 22.5557 11.9944 22.2552C13.194 21.1737 13.8537 19.8519 14.1536 18.2897C14.2136 18.0494 14.3336 17.9292 14.5135 17.9292C14.7534 17.9292 14.8734 18.1095 14.8734 18.3498C14.8134 18.6502 14.7534 19.0107 14.6335 19.3111C13.9737 21.354 12.7741 22.8561 10.9147 23.8775C10.4948 24.1178 10.3149 23.9977 10.2549 23.5771C10.015 22.3153 9.77508 20.9935 9.53516 19.7317C9.53516 19.6115 9.53516 19.4914 9.53516 19.4313C9.59514 19.3111 9.7151 19.251 9.89504 19.251C10.015 19.251 10.135 19.3712 10.1949 19.4914C10.2549 19.8519 10.3149 20.2124 10.4349 20.633C10.4948 21.4742 10.6748 22.2552 10.7947 23.0964Z" fill="url(#paint2_linear_3907_6849)"/>
<path d="M0.897651 13.1814C1.25753 13.2415 1.61742 13.3016 1.91732 13.3617C2.75704 13.5419 3.59677 13.6621 4.37651 13.8424C4.43649 13.8424 4.43649 13.8424 4.49647 13.8424C4.67641 13.9025 4.79637 14.0827 4.73639 14.263C4.67641 14.4432 4.55645 14.5634 4.31653 14.5033C3.83669 14.3831 3.29687 14.323 2.81702 14.2029C2.03728 14.0226 1.25753 13.9025 0.417808 13.7222C0.357828 13.7222 0.357828 13.7222 0.297847 13.7222C-0.0020546 13.6621 -0.062035 13.4819 0.0579258 13.1814C0.417808 12.5205 0.837671 11.8596 1.37749 11.3188C2.51712 10.1172 3.89667 9.45624 5.45616 9.09573C5.51614 9.09573 5.57612 9.09573 5.57612 9.03565C5.75606 8.97557 5.936 9.09573 5.99598 9.27598C6.05596 9.45624 5.936 9.63649 5.69608 9.69657C5.3362 9.81674 4.91634 9.87682 4.55645 9.99699C2.99696 10.5377 1.79736 11.4991 0.897651 12.881C0.957631 13.0613 0.957631 13.1214 0.897651 13.1814Z" fill="url(#paint3_linear_3907_6849)"/>
<path d="M5.15625 18.5292C5.21623 18.4691 5.27621 18.3489 5.33619 18.2888C6.47582 17.1472 7.55546 16.0657 8.69509 14.9241C9.11495 14.5035 9.47484 14.143 9.8947 13.7224C10.0746 13.5422 10.2546 13.5422 10.4345 13.6624C10.5545 13.7825 10.5545 14.0229 10.3745 14.2031C9.05497 15.525 7.73541 16.9069 6.35586 18.2287C6.17592 18.409 5.99598 18.6493 5.75605 18.8296C5.63609 18.9498 5.51613 18.9498 5.39617 18.8897C5.21623 18.8296 5.15625 18.7094 5.15625 18.5292Z" fill="url(#paint4_linear_3907_6849)"/>
<path d="M3.59676 20.0913C3.71672 20.1514 3.83668 20.2115 3.89666 20.3316C3.95664 20.4518 3.89666 20.572 3.83668 20.6921C3.7767 20.7522 3.65674 20.8724 3.59676 20.9926C2.87699 21.7136 2.15723 22.4947 1.37748 23.2157C1.25752 23.2758 1.19754 23.3358 1.07758 23.3358C0.957621 23.3358 0.83766 23.2758 0.77768 23.1556C0.717699 22.9753 0.717699 22.8552 0.83766 22.735C1.3175 22.2543 1.79735 21.7737 2.27719 21.293C2.63707 20.9325 2.93697 20.6321 3.29686 20.2716C3.41682 20.2115 3.4768 20.1514 3.59676 20.0913Z" fill="url(#paint5_linear_3907_6849)"/>
<path d="M3.05723 17.6274C3.35713 17.6274 3.53708 17.9279 3.41711 18.1081C3.35713 18.1682 3.35713 18.2283 3.29715 18.2884C2.51741 19.0695 1.73766 19.8505 0.957919 20.6316L0.897938 20.6917C0.717997 20.8119 0.538056 20.872 0.418096 20.6917C0.298135 20.5716 0.298135 20.3312 0.418096 20.2111C1.0179 19.6102 1.6177 19.0094 2.21751 18.4085C2.45743 18.1682 2.63737 17.9879 2.87729 17.8077C2.93727 17.6875 3.05723 17.6274 3.05723 17.6274Z" fill="url(#paint6_linear_3907_6849)"/>
<path d="M6.41548 20.9925C6.41548 21.0526 6.35549 21.1126 6.29551 21.2328C5.45579 22.074 4.67604 22.8551 3.83632 23.6963C3.65638 23.8765 3.47644 23.8765 3.2965 23.6963C3.17654 23.5761 3.17654 23.3358 3.35648 23.2156C4.1962 22.3744 4.97595 21.5933 5.81567 20.7521C5.93563 20.632 6.05559 20.5719 6.23553 20.632C6.35549 20.6921 6.41548 20.7521 6.41548 20.9925Z" fill="url(#paint7_linear_3907_6849)"/>
<defs>
<linearGradient id="paint0_linear_3907_6849" x1="14.3861" y1="0" x2="14.3861" y2="19.3465" gradientUnits="userSpaceOnUse">
<stop stop-color="#EFA5B6"/>
<stop offset="1" stop-color="#3447AA"/>
</linearGradient>
<linearGradient id="paint1_linear_3907_6849" x1="16.3131" y1="4.04883" x2="16.3131" y2="11.3791" gradientUnits="userSpaceOnUse">
<stop stop-color="#EFA5B6"/>
<stop offset="1" stop-color="#3447AA"/>
</linearGradient>
<linearGradient id="paint2_linear_3907_6849" x1="12.2043" y1="17.9292" x2="12.2043" y2="24" gradientUnits="userSpaceOnUse">
<stop stop-color="#EFA5B6"/>
<stop offset="1" stop-color="#3447AA"/>
</linearGradient>
<linearGradient id="paint3_linear_3907_6849" x1="3.00563" y1="9.02002" x2="3.00563" y2="14.5189" gradientUnits="userSpaceOnUse">
<stop stop-color="#EFA5B6"/>
<stop offset="1" stop-color="#3447AA"/>
</linearGradient>
<linearGradient id="paint4_linear_3907_6849" x1="7.83719" y1="13.5786" x2="7.83719" y2="18.9291" gradientUnits="userSpaceOnUse">
<stop stop-color="#EFA5B6"/>
<stop offset="1" stop-color="#3447AA"/>
</linearGradient>
<linearGradient id="paint5_linear_3907_6849" x1="2.32989" y1="20.0913" x2="2.32989" y2="23.3358" gradientUnits="userSpaceOnUse">
<stop stop-color="#EFA5B6"/>
<stop offset="1" stop-color="#3447AA"/>
</linearGradient>
<linearGradient id="paint6_linear_3907_6849" x1="1.89141" y1="17.6274" x2="1.89141" y2="20.8055" gradientUnits="userSpaceOnUse">
<stop stop-color="#EFA5B6"/>
<stop offset="1" stop-color="#3447AA"/>
</linearGradient>
<linearGradient id="paint7_linear_3907_6849" x1="4.81418" y1="20.6084" x2="4.81418" y2="23.8314" gradientUnits="userSpaceOnUse">
<stop stop-color="#EFA5B6"/>
<stop offset="1" stop-color="#3447AA"/>
</linearGradient>
</defs>
</svg>
