<svg width="24" height="24" viewBox="0 0 24 24" fill="none" xmlns="http://www.w3.org/2000/svg">
<path d="M9.659 16.5238C9.36632 16.5841 9.14681 16.6444 8.92729 16.7651C8.63461 16.4032 8.41511 15.9811 8.12243 15.6795C7.61023 15.0765 7.02486 14.5337 6.51266 13.9306C5.70778 13.026 5.04925 12.1214 4.75656 10.9756C4.09802 8.14114 6.00046 5.36702 9.29315 4.28149C13.6102 2.83412 18.5859 5.2464 19.2444 9.04575C19.5371 10.7947 18.8785 12.242 17.7078 13.6291C17.1956 14.2322 16.5371 14.8352 16.0249 15.4986C15.659 15.9208 15.4395 16.3429 15.0737 16.7651C14.9273 16.946 14.781 17.1269 14.5615 17.1872C12.8785 17.73 11.1956 18.2124 9.51267 18.6949C9.29316 18.7552 9.14682 18.6949 9.07364 18.5743C9.00047 18.3933 9.00048 18.2124 9.22 18.1521C9.36634 18.0918 9.51266 18.0315 9.659 18.0315C11.1224 17.6094 12.5858 17.1872 14.0493 16.7047C14.1956 16.6444 14.3419 16.5238 14.4151 16.4032C15.0005 15.4986 15.7322 14.7749 16.4639 13.9306C17.1956 13.1466 17.8542 12.4229 18.1468 11.458C18.8785 9.52821 18.3664 7.83961 16.7566 6.39224C14.9273 4.70364 12.5859 4.16088 9.9517 4.82425C7.31755 5.48763 5.85412 6.99531 5.34192 9.22667C4.97607 10.7947 5.6346 12.1214 6.73216 13.3276C7.3907 14.0512 8.04925 14.7749 8.70779 15.4986C9.14682 15.7398 9.36632 16.1017 9.659 16.5238Z" fill="url(#paint0_linear_3907_6869)"/>
<path d="M9.29275 22.4943C9.21958 22.434 9.07324 22.3737 9.07324 22.2531C9.07324 22.1325 9.14642 22.0118 9.21959 21.8912C9.21959 21.8309 9.36593 21.8309 9.4391 21.8309C11.0489 21.3485 12.7318 20.866 14.3416 20.3836C14.7074 20.2629 14.8537 20.3232 14.9269 20.5042C15.0001 20.6851 14.8537 20.866 14.5611 20.9866C12.8781 21.4691 11.2684 21.9515 9.58545 22.4943C9.51228 22.434 9.43909 22.434 9.29275 22.4943Z" fill="url(#paint1_linear_3907_6869)"/>
<path d="M9.29275 20.5046C9.21958 20.4442 9.07324 20.3839 9.07324 20.2633C9.07324 20.1427 9.14642 20.0221 9.21959 19.9015C9.21959 19.8412 9.36593 19.8412 9.4391 19.8412C11.0489 19.3587 12.7318 18.8763 14.3416 18.3938C14.7074 18.2732 14.8537 18.3335 14.9269 18.5144C15.0001 18.6953 14.9269 18.8763 14.5611 18.9969C12.8781 19.4793 11.2684 20.0221 9.58545 20.5046C9.51228 20.5046 9.43909 20.5046 9.29275 20.5046Z" fill="url(#paint2_linear_3907_6869)"/>
<path d="M14.5614 22.1929C14.0492 23.6402 11.1956 24.4845 9.43945 23.7005C11.1224 23.2181 12.8053 22.6753 14.5614 22.1929Z" fill="url(#paint3_linear_3907_6869)"/>
<path d="M12.3655 1.08553C12.3655 1.32676 12.3655 1.56798 12.3655 1.80921C12.3655 1.99013 12.2192 2.11075 11.9996 2.11075C11.7801 2.11075 11.6338 1.99013 11.6338 1.80921C11.6338 1.32676 11.6338 0.844299 11.6338 0.301535C11.6338 0.120614 11.7801 0 11.9996 0C12.2192 0 12.3655 0.120614 12.3655 0.301535C12.3655 0.542764 12.3655 0.844299 12.3655 1.08553Z" fill="url(#paint4_linear_3907_6869)"/>
<path d="M1.31707 9.52881C1.60975 9.52881 1.90244 9.52881 2.19513 9.52881C2.48781 9.52881 2.63416 9.64942 2.63416 9.83034C2.63416 10.0113 2.48781 10.1319 2.19513 10.1319C1.60976 10.1319 1.0244 10.1319 0.43903 10.1319C0.146346 10.1319 0 10.0113 0 9.83034C0 9.64942 0.146346 9.52881 0.43903 9.52881C0.731714 9.52881 1.02438 9.52881 1.31707 9.52881Z" fill="url(#paint5_linear_3907_6869)"/>
<path d="M22.6834 10.1919C22.3907 10.1919 22.098 10.1919 21.8053 10.1919C21.5858 10.1919 21.4395 10.0713 21.4395 9.8904C21.4395 9.70948 21.5858 9.58887 21.8053 9.58887C22.3907 9.58887 23.0492 9.58887 23.6346 9.58887C23.8541 9.58887 24.0004 9.70948 24.0004 9.8904C24.0004 10.0713 23.8541 10.1919 23.6346 10.1919C23.2687 10.1919 22.9761 10.1919 22.6834 10.1919Z" fill="url(#paint6_linear_3907_6869)"/>
<path d="M3.65886 2.65332C3.8052 2.71363 3.87837 2.77393 3.95154 2.83424C4.39056 3.19608 4.75643 3.49762 5.19545 3.85946C5.41496 4.04038 5.41496 4.161 5.19545 4.34192C5.04911 4.46253 4.82958 4.46253 4.61007 4.34192C4.17105 3.98008 3.73203 3.67854 3.36618 3.3167C3.29301 3.25639 3.21983 3.07547 3.293 2.95486C3.36617 2.77393 3.58569 2.71363 3.65886 2.65332Z" fill="url(#paint7_linear_3907_6869)"/>
<path d="M18.9509 15.2578C19.0973 15.3181 19.1704 15.3784 19.2436 15.4387C19.6826 15.7403 20.0485 16.1021 20.4875 16.4036C20.707 16.5846 20.707 16.7655 20.5607 16.8861C20.4143 17.0067 20.1948 17.0067 19.9753 16.8258C19.5363 16.464 19.1704 16.1624 18.7314 15.8006C18.6582 15.7403 18.5851 15.5593 18.6582 15.4387C18.6582 15.3784 18.8046 15.3181 18.9509 15.2578Z" fill="url(#paint8_linear_3907_6869)"/>
<path d="M20.7074 3.01548C20.6342 3.13609 20.561 3.1964 20.4879 3.25671C20.0488 3.61855 19.683 3.92009 19.2439 4.28193C19.0976 4.40254 18.8781 4.46285 18.6586 4.28193C18.5122 4.16131 18.5122 3.98039 18.6586 3.79947C19.0976 3.43763 19.4635 3.07579 19.9025 2.77425C19.9756 2.71394 20.1952 2.65364 20.3415 2.71394C20.4878 2.77425 20.561 2.95517 20.7074 3.01548Z" fill="url(#paint9_linear_3907_6869)"/>
<path d="M3.65821 17.0066C3.58504 16.9463 3.4387 16.886 3.36553 16.7654C3.29236 16.7051 3.36553 16.5241 3.36553 16.4638C3.80455 16.102 4.24357 15.6798 4.75577 15.318C4.90211 15.1974 5.12161 15.1974 5.26795 15.318C5.4143 15.4386 5.4143 15.6195 5.26795 15.7401C4.82893 16.102 4.38991 16.4638 3.95089 16.8257C3.87772 16.9463 3.80455 17.0066 3.65821 17.0066Z" fill="url(#paint10_linear_3907_6869)"/>
<defs>
<linearGradient id="paint0_linear_3907_6869" x1="11.9703" y1="3.85645" x2="11.9703" y2="18.7185" gradientUnits="userSpaceOnUse">
<stop stop-color="#EFA5B6"/>
<stop offset="1" stop-color="#3447AA"/>
</linearGradient>
<linearGradient id="paint1_linear_3907_6869" x1="12.0094" y1="20.3208" x2="12.0094" y2="22.4943" gradientUnits="userSpaceOnUse">
<stop stop-color="#EFA5B6"/>
<stop offset="1" stop-color="#3447AA"/>
</linearGradient>
<linearGradient id="paint2_linear_3907_6869" x1="12.0128" y1="18.3311" x2="12.0128" y2="20.5046" gradientUnits="userSpaceOnUse">
<stop stop-color="#EFA5B6"/>
<stop offset="1" stop-color="#3447AA"/>
</linearGradient>
<linearGradient id="paint3_linear_3907_6869" x1="12.0004" y1="22.1929" x2="12.0004" y2="23.9999" gradientUnits="userSpaceOnUse">
<stop stop-color="#EFA5B6"/>
<stop offset="1" stop-color="#3447AA"/>
</linearGradient>
<linearGradient id="paint4_linear_3907_6869" x1="11.9996" y1="0" x2="11.9996" y2="2.11075" gradientUnits="userSpaceOnUse">
<stop stop-color="#EFA5B6"/>
<stop offset="1" stop-color="#3447AA"/>
</linearGradient>
<linearGradient id="paint5_linear_3907_6869" x1="1.31708" y1="9.52881" x2="1.31708" y2="10.1319" gradientUnits="userSpaceOnUse">
<stop stop-color="#EFA5B6"/>
<stop offset="1" stop-color="#3447AA"/>
</linearGradient>
<linearGradient id="paint6_linear_3907_6869" x1="22.7199" y1="9.58887" x2="22.7199" y2="10.1919" gradientUnits="userSpaceOnUse">
<stop stop-color="#EFA5B6"/>
<stop offset="1" stop-color="#3447AA"/>
</linearGradient>
<linearGradient id="paint7_linear_3907_6869" x1="4.31139" y1="2.65332" x2="4.31139" y2="4.43238" gradientUnits="userSpaceOnUse">
<stop stop-color="#EFA5B6"/>
<stop offset="1" stop-color="#3447AA"/>
</linearGradient>
<linearGradient id="paint8_linear_3907_6869" x1="19.6453" y1="15.2578" x2="19.6453" y2="16.9702" gradientUnits="userSpaceOnUse">
<stop stop-color="#EFA5B6"/>
<stop offset="1" stop-color="#3447AA"/>
</linearGradient>
<linearGradient id="paint9_linear_3907_6869" x1="19.6281" y1="2.68896" x2="19.6281" y2="4.39611" gradientUnits="userSpaceOnUse">
<stop stop-color="#EFA5B6"/>
<stop offset="1" stop-color="#3447AA"/>
</linearGradient>
<linearGradient id="paint10_linear_3907_6869" x1="4.35536" y1="15.2275" x2="4.35536" y2="17.0066" gradientUnits="userSpaceOnUse">
<stop stop-color="#EFA5B6"/>
<stop offset="1" stop-color="#3447AA"/>
</linearGradient>
</defs>
</svg>
