<svg width="18" height="18" viewBox="0 0 18 18" fill="none" xmlns="http://www.w3.org/2000/svg">
<path d="M13.5002 3.9375C13.5369 3.93751 13.5734 3.94207 13.6096 3.94922C13.6264 3.95254 13.6422 3.95908 13.6584 3.96387C13.6774 3.96945 13.6966 3.97382 13.715 3.98145C13.7276 3.98666 13.7391 3.99392 13.7512 4C13.7723 4.01062 13.7937 4.02073 13.8137 4.03418C13.9047 4.09554 13.9762 4.18254 14.0188 4.28516C14.0264 4.30357 14.0308 4.32282 14.0363 4.3418C14.0512 4.39228 14.0627 4.4447 14.0627 4.5V9.75C14.0627 10.0606 13.8108 10.3124 13.5002 10.3125C13.1895 10.3125 12.9377 10.0607 12.9377 9.75V5.85742L4.89766 13.8975C4.678 14.1171 4.32241 14.1171 4.10274 13.8975C3.88307 13.6778 3.88307 13.3222 4.10274 13.1025L12.1428 5.0625H8.2502C7.93955 5.06249 7.6877 4.81065 7.6877 4.5C7.68771 4.18934 7.93954 3.93749 8.2502 3.9375H13.5002Z" fill="#3447AA"/>
</svg>
