<svg width="14" height="13" viewBox="0 0 14 13" fill="none" xmlns="http://www.w3.org/2000/svg">
<path d="M10.7812 0.1642C11.0797 -0.0745315 11.51 -0.0503619 11.7803 0.219864L13.7803 2.21986C14.0732 2.51276 14.0732 2.98752 13.7803 3.28041C13.4874 3.5733 13.0126 3.5733 12.7197 3.28041L11.9248 2.48549C11.5715 6.40809 10.008 8.8997 7.94434 10.4171C5.63419 12.1157 2.82172 12.5001 0.75 12.5001C0.335786 12.5001 0 12.1644 0 11.7501C3.09241e-06 11.3359 0.335788 11.0001 0.75 11.0001C2.67825 11.0001 5.11582 10.6345 7.05566 9.20815C8.7152 7.98786 10.1073 5.91906 10.4297 2.36733L9.21875 3.33608C8.8953 3.59483 8.42282 3.54233 8.16406 3.21889C7.90531 2.89544 7.9578 2.42296 8.28125 2.1642L10.7812 0.1642Z" fill="#3447AA"/>
</svg>
