<svg width="12" height="13" viewBox="0 0 12 13" fill="none" xmlns="http://www.w3.org/2000/svg">
<path d="M3.20866 0.583333C3.20866 0.261167 2.94749 0 2.62533 0C2.30316 0 2.04199 0.261167 2.04199 0.583333V1.16667C2.04199 1.48883 2.30316 1.75 2.62533 1.75C2.94749 1.75 3.20866 1.48883 3.20866 1.16667V0.583333Z" fill="#AEAEAE"/>
<path d="M9.62467 0.583333C9.62467 0.261167 9.36351 0 9.04134 0C8.71918 0 8.45801 0.261167 8.45801 0.583333V1.16667C8.45801 1.48883 8.71918 1.75 9.04134 1.75C9.36351 1.75 9.62467 1.48883 9.62467 1.16667V0.583333Z" fill="#AEAEAE"/>
<path d="M0 4.375V11.0833C0 11.3928 0.122916 11.6895 0.341709 11.9083C0.560501 12.1271 0.857247 12.25 1.16667 12.25H10.5C10.8094 12.25 11.1062 12.1271 11.325 11.9083C11.5438 11.6895 11.6667 11.3928 11.6667 11.0833V4.375H0ZM3.5 10.2083C3.5 10.363 3.43854 10.5114 3.32915 10.6208C3.21975 10.7302 3.07138 10.7917 2.91667 10.7917H2.33333C2.17862 10.7917 2.03025 10.7302 1.92085 10.6208C1.81146 10.5114 1.75 10.363 1.75 10.2083V9.625C1.75 9.47029 1.81146 9.32192 1.92085 9.21252C2.03025 9.10312 2.17862 9.04167 2.33333 9.04167H2.91667C3.07138 9.04167 3.21975 9.10312 3.32915 9.21252C3.43854 9.32192 3.5 9.47029 3.5 9.625V10.2083ZM3.5 7C3.5 7.15471 3.43854 7.30308 3.32915 7.41248C3.21975 7.52187 3.07138 7.58333 2.91667 7.58333H2.33333C2.17862 7.58333 2.03025 7.52187 1.92085 7.41248C1.81146 7.30308 1.75 7.15471 1.75 7V6.41667C1.75 6.26196 1.81146 6.11358 1.92085 6.00419C2.03025 5.89479 2.17862 5.83333 2.33333 5.83333H2.91667C3.07138 5.83333 3.21975 5.89479 3.32915 6.00419C3.43854 6.11358 3.5 6.26196 3.5 6.41667V7ZM6.70833 10.2083C6.70833 10.363 6.64688 10.5114 6.53748 10.6208C6.42808 10.7302 6.27971 10.7917 6.125 10.7917H5.54167C5.38696 10.7917 5.23858 10.7302 5.12919 10.6208C5.01979 10.5114 4.95833 10.363 4.95833 10.2083V9.625C4.95833 9.47029 5.01979 9.32192 5.12919 9.21252C5.23858 9.10312 5.38696 9.04167 5.54167 9.04167H6.125C6.27971 9.04167 6.42808 9.10312 6.53748 9.21252C6.64688 9.32192 6.70833 9.47029 6.70833 9.625V10.2083ZM6.70833 7C6.70833 7.15471 6.64688 7.30308 6.53748 7.41248C6.42808 7.52187 6.27971 7.58333 6.125 7.58333H5.54167C5.38696 7.58333 5.23858 7.52187 5.12919 7.41248C5.01979 7.30308 4.95833 7.15471 4.95833 7V6.41667C4.95833 6.26196 5.01979 6.11358 5.12919 6.00419C5.23858 5.89479 5.38696 5.83333 5.54167 5.83333H6.125C6.27971 5.83333 6.42808 5.89479 6.53748 6.00419C6.64688 6.11358 6.70833 6.26196 6.70833 6.41667V7ZM9.91667 10.2083C9.91667 10.363 9.85521 10.5114 9.74581 10.6208C9.63642 10.7302 9.48804 10.7917 9.33333 10.7917H8.75C8.59529 10.7917 8.44692 10.7302 8.33752 10.6208C8.22812 10.5114 8.16667 10.363 8.16667 10.2083V9.625C8.16667 9.47029 8.22812 9.32192 8.33752 9.21252C8.44692 9.10312 8.59529 9.04167 8.75 9.04167H9.33333C9.48804 9.04167 9.63642 9.10312 9.74581 9.21252C9.85521 9.32192 9.91667 9.47029 9.91667 9.625V10.2083ZM9.91667 7C9.91667 7.15471 9.85521 7.30308 9.74581 7.41248C9.63642 7.52187 9.48804 7.58333 9.33333 7.58333H8.75C8.59529 7.58333 8.44692 7.52187 8.33752 7.41248C8.22812 7.30308 8.16667 7.15471 8.16667 7V6.41667C8.16667 6.26196 8.22812 6.11358 8.33752 6.00419C8.44692 5.89479 8.59529 5.83333 8.75 5.83333H9.33333C9.48804 5.83333 9.63642 5.89479 9.74581 6.00419C9.85521 6.11358 9.91667 6.26196 9.91667 6.41667V7ZM11.6667 3.79167V2.04167C11.6667 1.73225 11.5438 1.4355 11.325 1.21671C11.1062 0.997916 10.8094 0.875 10.5 0.875H10.2083V1.16667C10.2083 1.81008 9.68508 2.33333 9.04167 2.33333C8.39825 2.33333 7.875 1.81008 7.875 1.16667V0.875H3.79167V1.16667C3.79167 1.81008 3.26842 2.33333 2.625 2.33333C1.98158 2.33333 1.45833 1.81008 1.45833 1.16667V0.875H1.16667C0.857247 0.875 0.560501 0.997916 0.341709 1.21671C0.122916 1.4355 0 1.73225 0 2.04167V3.79167H11.6667Z" fill="#AEAEAE"/>
</svg>
