<svg width="11" height="14" viewBox="0 0 11 14" fill="none" xmlns="http://www.w3.org/2000/svg">
<path d="M10.4145 2.42378C10.4547 2.46419 10.482 2.51559 10.493 2.5715C10.5041 2.62741 10.4983 2.68533 10.4765 2.73797C10.4546 2.79061 10.4177 2.83562 10.3704 2.86732C10.323 2.89902 10.2673 2.916 10.2103 2.91611H8.74384C7.87467 2.91611 7.58301 2.33278 7.58301 1.75528V0.289365C7.58301 0.0321146 7.89392 -0.096802 8.07592 0.085198L10.4145 2.42378Z" fill="#AEAEAE"/>
<path fill-rule="evenodd" clip-rule="evenodd" d="M0 2.33276C0 1.86863 0.184375 1.42352 0.512563 1.09533C0.840752 0.767138 1.28587 0.582764 1.75 0.582764H6.125C6.20235 0.582764 6.27654 0.613493 6.33124 0.668191C6.38594 0.722889 6.41667 0.797076 6.41667 0.87443V2.74693C6.41667 3.05635 6.53958 3.3531 6.75838 3.57189C6.97717 3.79068 7.27391 3.9136 7.58333 3.9136H10.2083C10.2857 3.9136 10.3599 3.94433 10.4146 3.99902C10.4693 4.05372 10.5 4.12791 10.5 4.20526V12.2494C10.5 12.7136 10.3156 13.1587 9.98744 13.4869C9.65925 13.8151 9.21413 13.9994 8.75 13.9994H1.75C1.28587 13.9994 0.840752 13.8151 0.512563 13.4869C0.184375 13.1587 0 12.7136 0 12.2494V2.33276ZM2.50833 5.83276C2.46192 5.83276 2.41741 5.8512 2.38459 5.88402C2.35177 5.91684 2.33333 5.96135 2.33333 6.00776V6.82443C2.33333 6.87084 2.35177 6.91536 2.38459 6.94817C2.41741 6.98099 2.46192 6.99943 2.50833 6.99943H6.825C6.87141 6.99943 6.91592 6.98099 6.94874 6.94817C6.98156 6.91536 7 6.87084 7 6.82443V6.00776C7 5.96135 6.98156 5.91684 6.94874 5.88402C6.91592 5.8512 6.87141 5.83276 6.825 5.83276H2.50833ZM2.50833 8.1661C2.46192 8.1661 2.41741 8.18454 2.38459 8.21735C2.35177 8.25017 2.33333 8.29468 2.33333 8.3411V9.15776C2.33333 9.20418 2.35177 9.24869 2.38459 9.28151C2.41741 9.31433 2.46192 9.33276 2.50833 9.33276H7.99167C8.01465 9.33276 8.0374 9.32824 8.05864 9.31944C8.07987 9.31065 8.09916 9.29776 8.11541 9.28151C8.13166 9.26526 8.14455 9.24597 8.15335 9.22473C8.16214 9.2035 8.16667 9.18075 8.16667 9.15776V8.3411C8.16667 8.31812 8.16214 8.29536 8.15335 8.27413C8.14455 8.2529 8.13166 8.2336 8.11541 8.21735C8.09916 8.2011 8.07987 8.18821 8.05864 8.17942C8.0374 8.17062 8.01465 8.1661 7.99167 8.1661H2.50833ZM2.33333 10.6744C2.33333 10.6514 2.33786 10.6287 2.34665 10.6075C2.35545 10.5862 2.36834 10.5669 2.38459 10.5507C2.40084 10.5344 2.42013 10.5215 2.44136 10.5128C2.4626 10.504 2.48535 10.4994 2.50833 10.4994H5.65833C5.68131 10.4994 5.70407 10.504 5.7253 10.5128C5.74653 10.5215 5.76583 10.5344 5.78208 10.5507C5.79833 10.5669 5.81122 10.5862 5.82001 10.6075C5.82881 10.6287 5.83333 10.6514 5.83333 10.6744V11.4911C5.83333 11.5375 5.8149 11.582 5.78208 11.6148C5.74926 11.6477 5.70475 11.6661 5.65833 11.6661H2.50833C2.46192 11.6661 2.41741 11.6477 2.38459 11.6148C2.35177 11.582 2.33333 11.5375 2.33333 11.4911V10.6744Z" fill="#AEAEAE"/>
</svg>
