<svg width="20" height="20" viewBox="0 0 20 20" fill="none" xmlns="http://www.w3.org/2000/svg">
<path d="M15.36 7.70007L14.71 7.04004L11.8101 4.13L6.25 9.69006L9.81006 13.25L15.36 7.70007Z" fill="#3447AA"/>
<path opacity="0.4" d="M8.75063 14.3106L5.15102 17.9102C4.82102 18.2402 4.41059 18.4904 3.96059 18.6104L0.960593 19.4697C0.690593 19.5497 0.410359 19.4703 0.220359 19.2803C0.0304337 19.0903 -0.0490797 18.81 0.0309057 18.5401L0.890281 15.5401C1.01028 15.0901 1.26048 14.6796 1.59048 14.3496L5.19106 10.75L8.75063 14.3106ZM15.4313 0.50978C16.1112 -0.169978 17.221 -0.169875 17.901 0.50978L18.9909 1.59962C19.6709 2.27962 19.6709 3.39033 18.9909 4.07033L17.3112 5.75001C17.5212 5.97001 17.7012 6.18013 17.8512 6.37013C18.1512 6.77011 18.3815 7.21005 18.3815 7.75001C18.3815 8.29001 18.1512 8.73013 17.8512 9.12013C17.5712 9.49012 17.161 9.89038 16.6911 10.3604L15.7809 11.2803C15.4909 11.57 15.0113 11.5701 14.7213 11.2803C14.4313 10.9903 14.4313 10.5097 14.7213 10.2197L15.6012 9.33986C16.1111 8.81994 16.4518 8.48995 16.6618 8.20997C16.8615 7.95021 16.8815 7.82998 16.8815 7.75001C16.8815 7.67005 16.8615 7.54997 16.6618 7.28029C16.4518 7.01029 16.1112 6.67017 15.6012 6.16017L12.6911 3.25001L15.4313 0.50978Z" fill="#3447AA"/>
</svg>
