<svg width="20" height="20" viewBox="0 0 20 20" fill="none" xmlns="http://www.w3.org/2000/svg">
<path opacity="0.4" d="M12.8049 3.5C14.1725 3.49998 15.2748 3.49996 16.1418 3.61652C17.0419 3.73754 17.7997 3.99643 18.4017 4.59835C19.0036 5.20027 19.2625 5.95814 19.3835 6.85825C19.5 7.72522 19.5 8.82754 19.5 10.1951V12.8049C19.5 14.1725 19.5 15.2748 19.3835 16.1418C19.2625 17.0419 19.0036 17.7997 18.4017 18.4017C17.7997 19.0036 17.0419 19.2625 16.1418 19.3835C15.2748 19.5 14.1725 19.5 12.8049 19.5H6.69513C5.32754 19.5 4.22522 19.5 3.35825 19.3835C2.45814 19.2625 1.70027 19.0036 1.09835 18.4017C0.496434 17.7997 0.23754 17.0419 0.116524 16.1418C-3.62592e-05 15.2748 -2.00768e-05 14.1725 0 12.8049V12.8049V10.1951V10.1951C-2.00768e-05 8.82753 -3.62545e-05 7.72521 0.116524 6.85825C0.23754 5.95814 0.496434 5.20027 1.09835 4.59835C1.70027 3.99643 2.45814 3.73754 3.35825 3.61652C4.22521 3.49996 5.32753 3.49998 6.69511 3.5H6.69513H12.8049H12.8049Z" fill="#3447AA"/>
<path d="M5.5 19.501C4.94718 19.4959 4.44814 19.4827 4 19.4512V3.55762C4.44814 3.52611 4.94718 3.51293 5.5 3.50781V19.501ZM14 3.50781C14.5528 3.51293 15.0519 3.52611 15.5 3.55762V19.4512C15.0519 19.4827 14.5528 19.4959 14 19.501V3.50781ZM9.7002 0C10.3651 -3.37903e-05 11.0373 -0.000153244 11.4961 0.0615234C11.9876 0.127638 12.4586 0.276997 12.8408 0.65918C13.223 1.04136 13.3724 1.51236 13.4385 2.00391C13.4939 2.41599 13.4995 2.92076 13.5 3.50098C13.2764 3.50035 13.0445 3.5 12.8047 3.5H12C11.9991 2.91115 11.9932 2.50956 11.9521 2.2041C11.9084 1.8788 11.8374 1.77682 11.7803 1.71973C11.7232 1.66263 11.6212 1.59159 11.2959 1.54785C10.949 1.50123 10.4782 1.5 9.75 1.5C9.02178 1.5 8.55097 1.50123 8.2041 1.54785C7.8788 1.59159 7.77682 1.66263 7.71973 1.71973C7.66263 1.77682 7.59159 1.8788 7.54785 2.2041C7.5068 2.50956 7.50088 2.91115 7.5 3.5H6.69531C6.45553 3.5 6.22364 3.50035 6 3.50098C6.00054 2.92076 6.00612 2.41599 6.06152 2.00391C6.12764 1.51236 6.277 1.04136 6.65918 0.65918C7.04136 0.276996 7.51236 0.127638 8.00391 0.0615234C8.46253 -0.000136752 9.03556 -3.37811e-05 9.7002 0Z" fill="#3447AA"/>
</svg>
