<svg width="17" height="17" viewBox="0 0 17 17" fill="none" xmlns="http://www.w3.org/2000/svg">
<path opacity="0.4" d="M16.0243 11.383L16.0303 11.3749C16.1562 11.1859 16.1565 10.9394 16.0305 10.7505L16.0242 10.7419C15.9215 10.6028 15.6353 10.215 15.4556 9.99927C15.089 9.55939 14.5515 8.97297 13.8661 8.38542C12.504 7.21792 10.5026 6 8.0625 6C5.62243 6 3.62101 7.21792 2.25893 8.38542C1.57345 8.97297 1.036 9.55939 0.669438 9.99927C0.489701 10.215 0.203459 10.6028 0.100823 10.7419L0.0944717 10.7505C-0.0314906 10.9394 -0.0314906 11.1856 0.0944717 11.3745L0.10082 11.3831C0.203453 11.5222 0.489699 11.91 0.669438 12.1257C1.036 12.5656 1.57345 13.152 2.25893 13.7396C3.62101 14.9071 5.62243 16.125 8.0625 16.125C10.5026 16.125 12.504 14.9071 13.8661 13.7396C14.5515 13.152 15.089 12.5656 15.4556 12.1257C15.6355 11.9098 15.922 11.5217 16.0243 11.383Z" fill="#3447AA"/>
<path d="M8.0625 8.25C9.6158 8.25 10.875 9.5092 10.875 11.0625C10.875 12.6158 9.6158 13.875 8.0625 13.875C6.5092 13.875 5.25 12.6158 5.25 11.0625C5.25 9.5092 6.5092 8.25 8.0625 8.25ZM2.625 0C3.24632 1.78814e-07 3.75 0.50368 3.75 1.125C3.75 1.22565 3.73671 1.32318 3.71191 1.41602L4.70996 2.41504C4.81545 2.52053 4.875 2.66332 4.875 2.8125V5.0625C4.875 5.37316 4.62316 5.625 4.3125 5.625C4.00184 5.625 3.75 5.37316 3.75 5.0625V3.0459L2.91602 2.21191C2.82318 2.23671 2.72565 2.25 2.625 2.25C2.00368 2.25 1.5 1.74632 1.5 1.125C1.5 0.50368 2.00368 1.44627e-08 2.625 0ZM13.5 0C14.1213 1.78814e-07 14.625 0.50368 14.625 1.125C14.625 1.74632 14.1213 2.25 13.5 2.25C13.3994 2.25 13.3018 2.23671 13.209 2.21191L12.375 3.0459V5.0625C12.375 5.37316 12.1232 5.625 11.8125 5.625C11.5018 5.625 11.25 5.37316 11.25 5.0625V2.8125C11.25 2.66332 11.3096 2.52053 11.415 2.41504L12.4131 1.41602C12.3883 1.32318 12.375 1.22565 12.375 1.125C12.375 0.50368 12.8787 5.94292e-07 13.5 0ZM8.0625 0C8.68382 1.78814e-07 9.1875 0.50368 9.1875 1.125C9.1875 1.54141 8.96126 1.90509 8.625 2.09961V4.3125C8.625 4.62316 8.37316 4.875 8.0625 4.875C7.75184 4.875 7.5 4.62316 7.5 4.3125V2.09961C7.16374 1.90509 6.9375 1.54141 6.9375 1.125C6.9375 0.50368 7.44118 1.44627e-08 8.0625 0Z" fill="#3447AA"/>
</svg>
