<svg width="14" height="16" viewBox="0 0 14 16" fill="none" xmlns="http://www.w3.org/2000/svg">
<path fill-rule="evenodd" clip-rule="evenodd" d="M10.3106 0.00750732C9.89807 0.00750732 9.56057 0.345007 9.56057 0.757507C9.56057 1.17001 9.89807 1.50751 10.3106 1.50751H10.7681C10.4006 1.84501 9.89807 2.26501 9.26057 2.73001C7.58807 3.95251 4.94058 5.5125 1.07808 6.795C0.688076 6.9225 0.470573 7.35001 0.605573 7.74001C0.733073 8.13001 1.16057 8.34751 1.55057 8.21251C5.56307 6.87751 8.35307 5.2425 10.1456 3.9375C10.8506 3.4275 11.3981 2.9625 11.8106 2.58V3C11.8106 3.4125 12.1481 3.75 12.5606 3.75C12.9731 3.75 13.3106 3.4125 13.3106 3V0.75C13.3106 0.3375 12.9731 0 12.5606 0H10.3106V0.00750732ZM6.93557 7.88251H6.92057C6.76307 7.88251 6.61307 7.88251 6.48557 7.89001C6.35057 7.89751 6.20808 7.92001 6.05808 7.98001C5.73558 8.11501 5.48057 8.37002 5.34557 8.69252C5.28557 8.84252 5.26307 8.98503 5.25557 9.12003C5.24807 9.24753 5.24807 9.38999 5.24807 9.55499V13.71C5.24807 13.8675 5.24807 14.0175 5.25557 14.145C5.26307 14.28 5.28557 14.4225 5.34557 14.5725C5.48057 14.895 5.73558 15.15 6.05808 15.285C6.20808 15.345 6.35057 15.3675 6.48557 15.375C6.60557 15.3825 6.75557 15.3825 6.92057 15.3825H6.95058C7.10808 15.3825 7.25807 15.3825 7.38557 15.375C7.52057 15.3675 7.66307 15.345 7.81307 15.285C8.13557 15.15 8.39057 14.895 8.52557 14.5725C8.58557 14.4225 8.60807 14.28 8.61557 14.145C8.62307 14.0175 8.62307 13.875 8.62307 13.71V9.55499C8.62307 9.39749 8.62307 9.24753 8.61557 9.12003C8.60807 8.98503 8.58557 8.84252 8.52557 8.69252C8.39057 8.37002 8.13557 8.11501 7.81307 7.98001C7.66307 7.92001 7.52057 7.89751 7.38557 7.89001C7.26557 7.88251 7.11558 7.88251 6.95058 7.88251H6.93557Z" fill="#3447AA"/>
<path opacity="0.4" d="M2.1377 9.76343C2.27264 9.77094 2.4155 9.7933 2.56543 9.85327C2.88778 9.98831 3.14239 10.2438 3.27734 10.5662C3.33729 10.7161 3.35969 10.8589 3.36719 10.9939C3.37466 11.1213 3.375 11.2637 3.375 11.4285V13.7087C3.375 13.8661 3.37468 14.0159 3.36719 14.1433C3.35969 14.2783 3.33734 14.421 3.27734 14.571C3.14239 14.8933 2.88762 15.1479 2.56543 15.283C2.4155 15.3429 2.27264 15.3663 2.1377 15.3738C2.0102 15.3813 1.86715 15.3806 1.70215 15.3806C1.53725 15.3806 1.35722 15.3813 1.2373 15.3738C1.10235 15.3663 0.959508 15.3429 0.80957 15.283C0.487383 15.1479 0.232606 14.8933 0.0976562 14.571C0.0376563 14.421 0.0153125 14.2783 0.0078125 14.1433C0.000320073 14.0159 -2.13278e-09 13.8736 0 13.7087V11.4285C0 11.2712 0.000340006 11.1213 0.0078125 10.9939C0.0153097 10.8589 0.0377064 10.7161 0.0976562 10.5662C0.232611 10.2438 0.487223 9.98831 0.80957 9.85327C0.959499 9.7933 1.10236 9.77094 1.2373 9.76343C1.36471 9.75593 1.54473 9.75562 1.70215 9.75562C1.85965 9.75562 2.0102 9.75593 2.1377 9.76343ZM12.6377 5.26343C12.7726 5.27094 12.9155 5.2933 13.0654 5.35327C13.3878 5.48831 13.6424 5.74377 13.7773 6.06616C13.8372 6.21591 13.8597 6.35812 13.8672 6.49292C13.8747 6.62042 13.875 6.76347 13.875 6.92847V13.7087C13.875 13.8661 13.8747 14.0159 13.8672 14.1433C13.8597 14.2783 13.8373 14.421 13.7773 14.571C13.6424 14.8933 13.3876 15.1479 13.0654 15.283C12.9155 15.3429 12.7726 15.3663 12.6377 15.3738C12.5177 15.3813 12.3671 15.3806 12.2021 15.3806C12.0372 15.3806 11.8572 15.3813 11.7373 15.3738C11.6024 15.3663 11.4595 15.3429 11.3096 15.283C10.9874 15.1479 10.7326 14.8933 10.5977 14.571C10.5377 14.421 10.5153 14.2783 10.5078 14.1433C10.5003 14.0159 10.5 13.8736 10.5 13.7087V6.92847C10.5 6.77097 10.5003 6.62042 10.5078 6.49292C10.5153 6.35812 10.5378 6.21591 10.5977 6.06616C10.7326 5.74377 10.9872 5.48831 11.3096 5.35327C11.4595 5.2933 11.6024 5.27094 11.7373 5.26343C11.8572 5.25593 12.0447 5.25562 12.2021 5.25562C12.3596 5.25562 12.5102 5.25593 12.6377 5.26343Z" fill="#3447AA"/>
</svg>
