<svg width="30" height="36" viewBox="0 0 30 36" fill="none" xmlns="http://www.w3.org/2000/svg">
<path d="M14.583 15C15.2733 15 15.8328 15.5598 15.833 16.25V23.334H20.9922C21.2091 23.334 21.4232 23.3341 21.6035 23.3447C21.7939 23.356 22.05 23.3828 22.3164 23.4863C23.1459 23.8089 23.7047 24.5904 23.7471 25.4766C23.7606 25.761 23.7057 26.012 23.6562 26.1963C23.6094 26.3709 23.5423 26.5746 23.4736 26.7812L23.4648 26.8076C23.4502 26.8516 23.4351 26.8956 23.4209 26.9385C23.1808 27.6629 22.9933 28.2279 22.6914 28.7051C22.2051 29.4737 21.5047 30.0737 20.6846 30.4385L20.5918 30.9043C20.5795 30.9656 20.5676 31.0262 20.5557 31.0859C20.3567 32.0851 20.2014 32.8643 19.8359 33.5088C19.2746 34.4986 18.3649 35.2442 17.2842 35.6006C16.5805 35.8326 15.7855 35.8319 14.7666 35.8311H14.3955C13.3769 35.8319 12.5825 35.8326 11.8789 35.6006C10.7982 35.2442 9.88848 34.4986 9.32715 33.5088C8.96171 32.8643 8.80642 32.0851 8.60742 31.0859C8.59552 31.0262 8.58356 30.9656 8.57129 30.9043L8.47754 30.4365C7.65917 30.0716 6.96008 29.4724 6.47461 28.7051C6.17272 28.2279 5.98522 27.6629 5.74512 26.9385C5.73092 26.8956 5.71577 26.8516 5.70117 26.8076C5.69825 26.7988 5.6953 26.79 5.69238 26.7812C5.62374 26.5746 5.55661 26.3709 5.50977 26.1963C5.46035 26.012 5.40542 25.761 5.41895 25.4766C5.46127 24.5904 6.02009 23.8089 6.84961 23.4863C7.11604 23.3828 7.37216 23.356 7.5625 23.3447C7.74277 23.3341 7.95692 23.334 8.17383 23.334H13.333V16.25C13.3332 15.5598 13.8928 15 14.583 15ZM18.0342 30.834H11.1318C11.124 30.834 11.1162 30.833 11.1084 30.833C11.2987 31.7642 11.3783 32.0571 11.502 32.2754C11.7571 32.7254 12.1708 33.0646 12.6621 33.2266C12.933 33.3158 13.2872 33.3311 14.5811 33.3311C15.8754 33.3311 16.2301 33.3158 16.501 33.2266C16.9923 33.0646 17.406 32.7254 17.6611 32.2754C17.7848 32.0571 17.8634 31.764 18.0537 30.833C18.0472 30.833 18.0407 30.834 18.0342 30.834ZM8.07422 26.0205C8.37847 26.9366 8.47024 27.1847 8.58691 27.3691C8.87276 27.8208 9.32 28.1438 9.83496 28.2725C10.0447 28.3249 10.3065 28.334 11.2695 28.334H17.8965C18.8595 28.334 19.1213 28.3249 19.3311 28.2725C19.846 28.1438 20.2933 27.8208 20.5791 27.3691C20.6958 27.1847 20.7875 26.9366 21.0918 26.0205C21.1153 25.9497 21.1357 25.8878 21.1533 25.834H8.0127C8.03035 25.8878 8.05069 25.9497 8.07422 26.0205ZM14.583 0C22.6251 1.43567e-07 29.1659 6.45688 29.166 14.4482C29.166 17.1727 28.4038 19.7242 27.0791 21.9004C26.7201 22.4899 25.951 22.6773 25.3613 22.3184C24.7717 21.9594 24.5854 21.1903 24.9443 20.6006C26.038 18.804 26.666 16.7001 26.666 14.4482C26.6659 7.86156 21.2684 2.5 14.583 2.5C7.89759 2.5 2.5001 7.86156 2.5 14.4482C2.5 16.7001 3.12803 18.804 4.22168 20.6006C4.58063 21.1903 4.39432 21.9594 3.80469 22.3184C3.21505 22.6773 2.44592 22.4899 2.08691 21.9004C0.76222 19.7242 0 17.1727 0 14.4482C0.000101115 6.45688 6.54096 0 14.583 0Z" fill="#FFC748"/>
</svg>
