<svg width="32" height="32" viewBox="0 0 32 32" fill="none" xmlns="http://www.w3.org/2000/svg">
<path d="M25.0037 27.642H18.1381V20.7045H20.407C20.9824 20.7045 21.3224 20.0507 20.9824 19.5799L16.5689 13.4728C16.2877 13.0805 15.7058 13.0805 15.4246 13.4728L11.011 19.5799C10.671 20.0507 11.0045 20.7045 11.5864 20.7045H13.8553V27.642H6.16592C2.73314 27.4524 0 24.2419 0 20.7634C0 18.3637 1.30119 16.2713 3.23008 15.1402C3.05353 14.6628 2.96199 14.1528 2.96199 13.6167C2.96199 11.1647 4.9432 9.18347 7.39518 9.18347C7.92481 9.18347 8.43482 9.27501 8.91214 9.45155C10.331 6.44379 13.3911 4.35797 16.9481 4.35797C21.5513 4.36451 25.3437 7.88883 25.7752 12.3809C29.3126 12.9889 32 16.2648 32 19.9722C32 23.9346 28.9138 27.3674 25.0037 27.642Z" fill="#3447AA"/>
</svg>
